:SAMPLES-PER-SECOND 30
:FULLY-SPECIFIED
:DEGREES
170
root  31.8576 15.5341 -0.694425 1.21826 81.3502 21.6788
RightUpLeg  -42.6129 -5.24173 7.46113
RightLeg  146.885 12.1811 0.506775
RightFoot  -38.4543 0.10736 0.425913
RightToes  2.85217e-009 -3.18055e-015 8.94531e-016
Spine  61.0238 -1.03252 -0.567317
Spine1  17.4344 2.02213 -11.2633
HEad  -26.263 2.13921 3.45089
LeftShoulder1  0 -2.69403e-036 -1.28585e-037
LeftArm  -11.7959 -51.9114 -62.3025
LeftForeArm  -132.134 -50.6306 167.753
LeftHand  0.088304 4.36971 17.9693
RightShoulder  -2.48481e-017 0 -8.08114e-019
RightArm  1.38833 40.8582 73.2592
RightForeArm  -89.7778 47.8903 -152.373
RightHand  4.24801 -16.8629 -26.5538
LeftUpLeg  -88.8871 -1.84333 -8.69459
LeftLeg  102.69 -17.9408 15.143
LeftFoot  -5.5345 -0.108647 1.35029
LeftToes  -3.29237e-010 -4.9359e-011 -7.59376e-011
171
root  32.5173 16.1253 -0.739029 0.639404 81.8069 19.8428
RightUpLeg  -40.2218 -5.79918 5.66368
RightLeg  145.21 10.7663 1.37978
RightFoot  -38.1678 0.0404863 0.125141
RightToes  2.85217e-009 -3.18055e-015 8.94531e-016
Spine  62.2055 -0.662513 -1.44097
Spine1  16.0423 1.43365 -10.8953
HEad  -26.281 1.92264 4.30613
LeftShoulder1  0 -2.69403e-036 -1.28585e-037
LeftArm  -11.236 -52.3911 -62.8599
LeftForeArm  -131.265 -51.0361 167.367
LeftHand  0.00307685 4.13469 18.4309
RightShoulder  -2.48481e-017 0 -8.08114e-019
RightArm  0.297808 41.2339 71.9731
RightForeArm  -89.6392 47.8275 -152.453
RightHand  4.35401 -17.0801 -26.8306
LeftUpLeg  -87.5775 -2.70848 -8.64679
LeftLeg  102.777 -18.0495 15.374
LeftFoot  -6.80253 -0.0981032 1.34034
LeftToes  -3.29237e-010 -4.9359e-011 -7.59376e-011
172
root  33.1307 16.9261 -0.733135 1.44836 81.1966 20.2786
RightUpLeg  -37.7491 -5.15151 4.02129
RightLeg  142.777 10.1689 1.81484
RightFoot  -36.6789 -0.0195556 -0.15814
RightToes  2.85217e-009 -3.18055e-015 8.94531e-016
Spine  64.2244 0.804773 -3.16316
Spine1  14.5853 1.47451 -10.3376
HEad  -25.9603 1.57965 4.47875
LeftShoulder1  0 -2.69403e-036 -1.28585e-037
LeftArm  -11.2105 -52.6889 -62.9788
LeftForeArm  -131.364 -51.2529 167.198
LeftHand  -0.0142286 4.07406 18.391
RightShoulder  -2.48481e-017 0 -8.08114e-019
RightArm  -0.18399 41.698 71.0889
RightForeArm  -89.4443 47.8308 -152.434
RightHand  4.47837 -17.2769 -27.3341
LeftUpLeg  -84.4241 -2.10075 -8.66586
LeftLeg  102.446 -17.8632 15.1427
LeftFoot  -8.35292 -0.0652642 0.908385
LeftToes  -3.29237e-010 -4.9359e-011 -7.59376e-011
173
root  33.8699 17.7163 -0.742409 -6.8233 81.1091 10.6945
RightUpLeg  -36.3259 -5.68175 5.1434
RightLeg  139.77 11.1265 1.08326
RightFoot  -34.772 0.0108452 -0.0420861
RightToes  2.85217e-009 -3.18055e-015 8.94531e-016
Spine  64.5678 1.41396 -3.40643
Spine1  13.4972 1.77268 -9.72019
HEad  -25.4229 1.34013 4.20475
LeftShoulder1  0 -2.69403e-036 -1.28585e-037
LeftArm  -11.1315 -52.8223 -63.3156
LeftForeArm  -132.049 -51.0133 167.444
LeftHand  0.0220783 4.14783 17.9518
RightShoulder  -2.48481e-017 0 -8.08114e-019
RightArm  -0.0954152 41.854 70.8078
RightForeArm  -89.3048 47.8623 -152.379
RightHand  4.56208 -17.355 -27.8451
LeftUpLeg  -82.5636 -2.03226 -7.23001
LeftLeg  102.656 -17.7203 14.5376
LeftFoot  -10.139 -0.0470976 0.610009
LeftToes  -3.29237e-010 -4.9359e-011 -7.59376e-011
174
root  34.6913 18.4757 -0.754756 -22.4703 81.2178 -7.06287
RightUpLeg  -36.7294 -7.15721 8.40022
RightLeg  136.506 13.212 -0.823829
RightFoot  -29.348 0.176929 1.23104
RightToes  2.85217e-009 -3.18055e-015 8.94531e-016
Spine  63.5386 1.23186 -2.5273
Spine1  12.7579 2.22117 -9.1231
HEad  -24.862 1.51318 4.03872
LeftShoulder1  0 -2.69403e-036 -1.28585e-037
LeftArm  -11.0624 -53.0145 -63.766
LeftForeArm  -132.512 -50.6257 167.786
LeftHand  0.0535289 4.20729 17.5174
RightShoulder  -2.48481e-017 0 -8.08114e-019
RightArm  0.116713 41.4208 71.0159
RightForeArm  -89.5663 47.8221 -152.456
RightHand  4.57835 -17.3101 -28.1494
LeftUpLeg  -81.9527 -2.30951 -4.74636
LeftLeg  103.402 -17.6256 13.6008
LeftFoot  -12.7855 -0.0405585 0.483497
LeftToes  -3.29237e-010 -4.9359e-011 -7.59376e-011
175
root  35.4186 19.2715 -0.728122 -37.6678 82.0217 -22.7888
RightUpLeg  -37.3237 -8.85662 9.66717
RightLeg  133.911 14.2438 -2.00289
RightFoot  -18.5609 0.136344 3.14497
RightToes  2.85217e-009 -3.18055e-015 8.94531e-016
Spine  64.2881 1.12941 -2.5327
Spine1  11.5139 1.8545 -7.89736
HEad  -24.341 2.25826 4.36616
LeftShoulder1  0 -2.69403e-036 -1.28585e-037
LeftArm  -11.3861 -53.3114 -63.9118
LeftForeArm  -132.51 -50.4702 167.907
LeftHand  0.071069 4.22241 17.0932
RightShoulder  -2.48481e-017 0 -8.08114e-019
RightArm  0.439126 40.4464 71.5505
RightForeArm  -89.0937 47.9123 -152.293
RightHand  4.37367 -16.9727 -27.3741
LeftUpLeg  -79.2794 -3.24356 -3.48049
LeftLeg  103.466 -17.3802 12.8344
LeftFoot  -15.7076 -0.0403802 0.325833
LeftToes  -3.29237e-010 -4.9359e-011 -7.59376e-011
176
root  36.1337 19.9663 -0.647908 -52.2554 82.7448 -37.4312
RightUpLeg  -39.1524 -9.24426 9.73501
RightLeg  132.942 12.567 -0.430105
RightFoot  -7.23479 -0.217056 4.35763
RightToes  2.85217e-009 -3.18055e-015 8.94531e-016
Spine  65.1968 1.28535 -3.08725
Spine1  10.2647 1.39289 -6.55085
HEad  -23.988 3.33677 5.21668
LeftShoulder1  0 -2.69403e-036 -1.28585e-037
LeftArm  -12.0308 -53.7156 -63.7224
LeftForeArm  -132.417 -50.5439 167.842
LeftHand  0.108931 4.29195 16.5055
RightShoulder  -2.48481e-017 0 -8.08114e-019
RightArm  0.514214 39.3951 71.9473
RightForeArm  -88.8046 47.9737 -152.183
RightHand  4.20678 -16.7239 -26.6341
LeftUpLeg  -76.2628 -4.28675 -2.50831
LeftLeg  103.41 -17.1462 12.1936
LeftFoot  -18.1512 -0.0435347 0.249934
LeftToes  -3.29237e-010 -4.9359e-011 -7.59376e-011
177
root  36.9211 20.5843 -0.522244 -64.9413 82.2021 -50.3983
RightUpLeg  -42.4404 -7.91084 10.2266
RightLeg  132.633 9.01211 3.23652
RightFoot  -2.63268 -0.334929 3.73661
RightToes  2.85217e-009 -3.18055e-015 8.94531e-016
Spine  65.1764 1.73576 -3.56102
Spine1  9.71797 1.51749 -5.47059
HEad  -23.7833 4.313 6.35572
LeftShoulder1  0 -2.69403e-036 -1.28585e-037
LeftArm  -12.5178 -54.1826 -63.4998
LeftForeArm  -132.647 -50.6529 167.774
LeftHand  0.180086 4.4719 15.8227
RightShoulder  -2.48481e-017 0 -8.08114e-019
RightArm  0.298904 38.5352 72.044
RightForeArm  -89.6078 47.8376 -152.436
RightHand  4.26739 -16.8268 -26.866
LeftUpLeg  -73.7342 -4.53606 -0.919018
LeftLeg  103.739 -16.9503 11.3567
LeftFoot  -20.4727 -0.0317548 0.460905
LeftToes  -3.29237e-010 -4.9359e-011 -7.59376e-011
178
root  37.7923 21.2319 -0.407202 -75.9058 81.0704 -61.2986
RightUpLeg  -45.9249 -6.83647 11.2454
RightLeg  131.037 7.07411 5.47551
RightFoot  -5.94485 -0.129777 1.86291
RightToes  2.85217e-009 -3.18055e-015 8.94531e-016
Spine  65.0058 1.65893 -3.35124
Spine1  9.89503 1.59898 -4.6918
HEad  -23.4963 5.05269 7.55582
LeftShoulder1  0 -2.69403e-036 -1.28585e-037
LeftArm  -12.6465 -54.6016 -63.2671
LeftForeArm  -133.404 -50.7212 167.778
LeftHand  0.279284 4.75621 15.07
RightShoulder  -2.48481e-017 0 -8.08114e-019
RightArm  0.456133 37.797 72.3413
RightForeArm  -89.7896 47.7871 -152.522
RightHand  4.27833 -16.8477 -26.8998
LeftUpLeg  -70.6538 -4.7143 1.03199
LeftLeg  104.104 -16.7475 10.4961
LeftFoot  -23.0808 0.00878281 0.900825
LeftToes  -3.29237e-010 -4.9359e-011 -7.59376e-011
179
root  38.7339 21.8092 -0.332967 -82.4343 79.5046 -67.5881
RightUpLeg  -49.9395 -6.23746 12.8717
RightLeg  127.696 8.70932 3.91889
RightFoot  -12.3078 0.00695968 0.889264
RightToes  2.85217e-009 -3.18055e-015 8.94531e-016
Spine  64.5151 1.1771 -2.53478
Spine1  10.556 1.76088 -4.3977
HEad  -22.935 5.48341 8.52273
LeftShoulder1  0 -2.69403e-036 -1.28585e-037
LeftArm  -12.4129 -54.8076 -63.2951
LeftForeArm  -134.555 -50.7407 167.85
LeftHand  0.411196 5.15348 13.9746
RightShoulder  -2.48481e-017 0 -8.08114e-019
RightArm  0.772223 37.1291 72.6063
RightForeArm  -89.5117 47.7992 -152.485
RightHand  4.25331 -16.7957 -26.8371
LeftUpLeg  -67.3968 -4.56888 3.12065
LeftLeg  104.599 -16.635 9.83667
LeftFoot  -25.8306 0.0667119 1.3101
LeftToes  -3.29237e-010 -4.9359e-011 -7.59376e-011
180
root  39.7121 22.1392 -0.292325 -85.3123 78.0752 -70.1705
RightUpLeg  -55.0238 -5.72365 14.5868
RightLeg  123.597 11.4512 0.450067
RightFoot  -17.623 0.0146601 0.299694
RightToes  2.85217e-009 -3.18055e-015 8.94531e-016
Spine  63.6753 0.492139 -1.52109
Spine1  11.2111 1.92405 -4.48849
HEad  -22.1399 5.67222 9.02775
LeftShoulder1  0 -2.69403e-036 -1.28585e-037
LeftArm  -12.1432 -54.6462 -63.4683
LeftForeArm  -135.59 -50.7212 167.944
LeftHand  0.536334 5.54605 12.8033
RightShoulder  -2.48481e-017 0 -8.08114e-019
RightArm  0.921237 36.63 72.5159
RightForeArm  -89.6309 47.7458 -152.57
RightHand  4.24873 -16.7769 -26.8579
LeftUpLeg  -64.6161 -4.2149 4.94644
LeftLeg  105.729 -16.6469 9.1693
LeftFoot  -28.2115 0.10356 1.44018
LeftToes  -3.29237e-010 -4.9359e-011 -7.59376e-011
181
root  40.669 22.1866 -0.265186 -86.7073 76.8655 -70.9424
RightUpLeg  -60.9365 -5.06689 16.235
RightLeg  119.637 12.3684 -1.12382
RightFoot  -20.8514 -0.0722242 -1.12925
RightToes  2.85217e-009 -3.18055e-015 8.94531e-016
Spine  62.9841 -0.277166 -0.400298
Spine1  11.5548 2.01418 -4.65351
HEad  -21.3689 5.65224 9.04926
LeftShoulder1  0 -2.69403e-036 -1.28585e-037
LeftArm  -11.9817 -54.1819 -63.5526
LeftForeArm  -136.104 -50.6923 168.006
LeftHand  0.58831 5.73249 12.5348
RightShoulder  -2.48481e-017 0 -8.08114e-019
RightArm  0.807016 36.3949 71.9871
RightForeArm  -90.247 47.6415 -152.762
RightHand  4.20525 -16.7013 -26.6949
LeftUpLeg  -62.3492 -3.73749 6.59137
LeftLeg  107.916 -16.6306 7.95937
LeftFoot  -29.9431 0.069093 1.08924
LeftToes  -3.29237e-010 -4.9359e-011 -7.59376e-011
